# xmcd CD database file
#
# Track frame offsets:
#	150
#	8230
#	28661
#	43326
#	61339
#
# Disc length: 1070 seconds
#
# Revision: 0
# Processed by: cddbd v1.5.2PL0 Copyright (c) Steve Scherf et al.
# Submitted via: CDex 1.70beta2
#
DISCID=3c042c05
DTITLE=Kota-rocK - Gohst dignity
DYEAR=2009
DGENRE=東方アレンジ
TTITLE0=地霊達の起床
TTITLE1=暗闇の風穴
TTITLE2=少女さとり ～3rd eye
TTITLE3=ヴォヤージュ1969(復刻版)
TTITLE4=千年幻想郷　History of the Moon(復刻版)
EXTD=YEAR: 2009
EXTT0=
EXTT1=
EXTT2=
EXTT3=
EXTT4=
PLAYORDER=
